<?xml version="1.0" standalone="no"?>
<!DOCTYPE svg PUBLIC "-//W3C//DTD SVG 20010904//EN"
 "http://www.w3.org/TR/2001/REC-SVG-20010904/DTD/svg10.dtd">
<svg version="1.0" xmlns="http://www.w3.org/2000/svg"
 width="1024.000000pt" height="1024.000000pt" viewBox="0 0 1024.000000 1024.000000"
 preserveAspectRatio="xMidYMid meet">
<metadata>
Created by potrace 1.14, written by Peter Selinger 2001-2017
</metadata>
<g transform="translate(0.000000,1024.000000) scale(0.100000,-0.100000)"
fill="#000000" stroke="none">
<path d="M4635 9812 c-27 -1 -95 -7 -150 -12 -55 -5 -138 -12 -184 -15 -47 -3
-90 -10 -97 -16 -7 -6 -41 -12 -76 -15 -35 -3 -79 -9 -98 -14 -19 -6 -50 -10
-68 -10 -20 0 -35 -6 -38 -15 -5 -12 -9 -13 -21 -3 -10 8 -17 8 -21 1 -7 -10
-75 -26 -167 -39 -22 -3 -42 -9 -45 -14 -3 -5 -25 -12 -48 -16 -23 -3 -40 -9
-38 -13 2 -3 -14 -7 -36 -8 -23 0 -43 -5 -47 -11 -3 -5 -41 -18 -83 -27 -43
-10 -78 -22 -78 -26 0 -4 -29 -15 -65 -24 -36 -10 -68 -22 -71 -26 -2 -5 -11
-6 -19 -2 -8 3 -15 1 -15 -4 0 -6 -19 -15 -42 -22 -24 -7 -56 -21 -73 -31 -16
-9 -51 -23 -77 -30 -27 -7 -48 -16 -48 -21 0 -4 -16 -13 -35 -19 -20 -7 -61
-25 -93 -41 -31 -16 -63 -29 -69 -29 -7 0 -13 -5 -13 -11 0 -5 -4 -7 -10 -4
-5 3 -10 -1 -10 -9 0 -8 -6 -13 -13 -10 -7 2 -39 -11 -71 -31 -32 -19 -64 -35
-71 -35 -8 0 -20 -6 -27 -13 -13 -13 -83 -55 -143 -85 -16 -9 -32 -18 -35 -21
-5 -5 -30 -23 -152 -102 -21 -13 -38 -27 -38 -31 0 -5 -4 -8 -9 -8 -8 0 -65
-37 -155 -100 -11 -8 -59 -46 -106 -85 -47 -38 -103 -83 -124 -100 -21 -16
-57 -48 -80 -70 -22 -22 -58 -53 -78 -69 -21 -16 -35 -33 -31 -40 3 -6 2 -8
-2 -3 -13 12 -84 -63 -78 -82 4 -12 3 -13 -4 -3 -7 10 -26 -5 -73 -58 -35 -38
-67 -76 -72 -82 -4 -7 -8 -9 -8 -5 0 5 -27 -24 -61 -65 -34 -40 -69 -80 -78
-89 -9 -9 -25 -27 -35 -40 -10 -13 -26 -32 -34 -42 -14 -16 -14 -20 -2 -29 12
-8 12 -9 -2 -4 -12 4 -26 -6 -45 -32 -15 -20 -30 -39 -33 -42 -4 -3 -19 -23
-35 -45 -17 -22 -34 -43 -40 -47 -5 -4 -6 -8 -2 -8 8 0 -1 -13 -35 -50 -26
-29 -40 -59 -32 -72 4 -7 3 -8 -4 -4 -6 4 -19 -5 -28 -21 -26 -42 -58 -93 -92
-147 -17 -27 -29 -52 -27 -56 3 -4 -2 -10 -10 -14 -8 -3 -22 -23 -31 -46 -9
-22 -19 -40 -23 -40 -4 0 -13 -16 -20 -35 -7 -19 -17 -35 -22 -35 -5 0 -8 -3
-8 -7 3 -14 -34 -93 -43 -93 -4 0 -8 -5 -8 -11 0 -6 -16 -45 -36 -87 -63 -134
-73 -156 -79 -184 -4 -16 -10 -28 -14 -28 -4 0 -15 -26 -25 -57 -10 -32 -22
-62 -26 -68 -4 -5 -15 -37 -25 -70 -9 -33 -20 -64 -25 -70 -4 -5 -13 -36 -20
-67 -7 -32 -16 -58 -20 -58 -4 0 -15 -38 -25 -85 -10 -47 -21 -85 -26 -85 -5
0 -9 -11 -9 -24 0 -14 -7 -55 -16 -92 -8 -37 -13 -73 -10 -80 3 -7 -1 -15 -8
-17 -8 -3 -16 -30 -20 -64 -11 -98 -16 -127 -28 -155 -6 -16 -8 -39 -6 -53 3
-13 1 -26 -3 -27 -5 -2 -10 -51 -11 -109 -2 -59 -6 -105 -9 -103 -3 2 -9 -58
-13 -134 -8 -182 -7 -544 2 -538 4 2 6 -26 5 -63 -2 -58 16 -264 31 -356 30
-189 44 -250 55 -247 7 1 10 -2 6 -8 -8 -13 15 -150 25 -150 4 0 5 -14 2 -30
-2 -17 0 -30 6 -30 5 0 18 -38 27 -85 14 -65 22 -85 32 -81 8 3 11 1 8 -5 -7
-11 13 -108 25 -124 5 -5 16 -37 25 -70 10 -33 23 -67 30 -75 8 -8 14 -19 14
-25 0 -29 25 -95 35 -92 6 3 11 -7 12 -23 1 -15 10 -47 21 -71 12 -24 37 -79
57 -121 20 -42 36 -81 36 -87 0 -6 4 -11 9 -11 5 0 15 -16 21 -35 6 -19 19
-39 28 -45 11 -6 12 -9 4 -10 -10 0 -10 -4 2 -16 9 -8 19 -26 22 -40 3 -13 10
-24 14 -24 4 0 13 -15 21 -32 13 -34 48 -88 62 -99 5 -3 7 -8 6 -10 -2 -2 5
-16 14 -31 9 -16 24 -39 32 -53 9 -14 19 -24 23 -21 4 3 9 -4 9 -15 2 -21 45
-92 88 -144 13 -16 25 -34 27 -40 1 -5 8 -17 15 -25 6 -8 47 -60 90 -115 100
-129 105 -134 124 -154 9 -9 34 -36 54 -61 21 -25 42 -44 47 -42 5 1 7 -1 4
-6 -8 -13 94 -113 106 -105 7 4 8 1 4 -6 -11 -18 258 -278 389 -377 28 -21 80
-63 117 -94 100 -83 154 -121 176 -123 11 0 18 -6 16 -12 -3 -9 78 -65 93 -64
3 0 9 -3 12 -8 7 -10 52 -39 64 -42 4 0 16 -9 26 -18 40 -37 35 -34 152 -96
26 -13 53 -29 60 -36 30 -25 151 -81 161 -75 7 4 8 2 4 -4 -4 -7 -1 -12 8 -12
9 0 16 -5 16 -11 0 -5 5 -7 10 -4 6 3 10 1 10 -4 0 -6 6 -11 13 -11 6 0 38
-13 69 -29 32 -16 73 -34 93 -41 19 -6 35 -15 35 -20 0 -8 56 -25 63 -18 2 2
11 -3 20 -11 9 -7 23 -11 32 -7 8 3 14 0 12 -6 -1 -6 23 -20 53 -31 30 -11 57
-23 60 -27 3 -4 13 -8 23 -8 40 -4 47 -6 47 -12 0 -3 22 -12 50 -19 27 -7 50
-16 50 -20 0 -4 36 -15 80 -25 44 -10 80 -22 80 -26 0 -4 38 -15 85 -25 47
-10 85 -21 85 -25 0 -4 47 -15 105 -26 58 -10 105 -22 105 -27 0 -5 7 -6 15
-3 9 3 23 2 33 -3 17 -9 106 -25 212 -37 30 -4 60 -11 66 -15 6 -5 54 -10 107
-12 52 -1 93 -6 90 -10 -3 -5 26 -7 65 -5 39 1 68 0 66 -3 -7 -12 297 -21 526
-16 124 3 249 6 278 6 30 0 51 4 48 9 -3 5 6 7 20 4 35 -6 303 19 310 29 3 5
21 9 40 9 19 0 34 4 34 10 0 5 7 7 15 4 18 -7 175 16 191 28 6 5 19 6 28 2 9
-3 16 -2 16 3 0 5 47 17 105 27 58 11 105 22 105 26 0 4 38 15 85 25 47 10 85
21 85 25 0 4 36 15 80 25 44 10 80 22 80 26 0 4 29 15 65 24 36 10 68 22 71
26 2 5 11 6 19 2 8 -3 15 0 15 6 0 6 4 11 9 11 5 0 20 4 33 9 13 5 28 9 33 11
6 1 24 9 40 19 17 10 51 24 77 31 26 7 49 18 52 26 3 8 13 14 23 14 23 0 134
55 127 63 -3 3 1 5 8 4 42 -1 50 3 45 26 -6 21 -6 21 8 3 8 -11 15 -15 15 -10
0 6 16 16 35 23 19 7 35 17 35 23 0 6 3 8 6 5 4 -4 19 2 33 12 14 10 38 21 54
25 15 3 27 10 27 15 0 4 18 16 40 26 22 10 37 22 33 28 -3 6 -1 7 6 3 13 -9
43 12 36 24 -3 5 3 6 13 3 11 -2 25 1 33 9 17 16 116 81 147 97 13 7 20 17 16
24 -4 7 -4 9 1 5 7 -7 62 21 92 47 7 5 35 26 64 45 79 54 194 152 191 162 -1
5 1 7 6 4 11 -6 99 63 180 141 34 34 62 58 62 55 0 -4 27 20 60 53 32 32 56
63 53 69 -3 6 -2 8 2 3 10 -9 65 41 65 60 0 7 4 13 8 13 12 0 67 55 131 131
30 35 64 74 75 85 12 12 28 30 36 41 53 66 95 119 100 123 3 3 23 30 45 60 22
30 44 58 50 62 5 4 6 8 2 8 -5 0 -2 7 5 15 35 39 43 52 185 278 14 23 34 54
44 68 10 14 19 35 21 45 2 10 10 26 19 34 8 8 21 30 28 47 8 18 18 33 23 33 6
0 4 8 -3 17 -11 13 -11 15 -1 9 9 -5 18 4 29 33 9 23 20 41 25 41 4 0 8 5 8
10 0 6 14 41 31 78 17 37 42 90 54 117 13 28 27 62 30 78 4 15 10 27 14 27 4
0 15 26 25 58 10 31 22 62 26 67 4 6 15 37 25 70 9 33 20 65 25 70 4 6 13 36
20 68 7 31 16 57 20 57 4 0 15 38 25 85 10 47 21 85 26 85 5 0 9 10 9 23 0 13
9 63 21 113 11 49 30 136 40 194 11 58 24 128 29 155 6 28 12 88 14 135 3 47
9 95 13 105 4 11 8 189 8 395 0 291 -4 413 -18 545 -10 93 -23 177 -28 186 -5
10 -9 30 -9 46 0 16 -8 39 -17 52 -9 14 -11 21 -5 17 9 -5 10 6 5 41 -3 26 -9
53 -13 58 -5 6 -11 31 -15 57 -4 26 -11 46 -15 43 -5 -3 -6 4 -3 15 3 11 2 28
-2 37 -5 10 -7 28 -6 41 1 12 -2 22 -7 22 -5 0 -15 26 -22 58 -8 31 -15 60
-16 65 -1 4 -2 16 -3 27 0 11 -7 20 -13 20 -8 0 -14 15 -15 36 -1 20 -7 41
-12 48 -6 7 -8 16 -4 19 3 4 -1 15 -10 24 -8 10 -16 21 -16 26 -1 4 -1 8 -2
10 0 1 -3 15 -5 31 -3 16 -13 48 -24 70 -10 23 -24 60 -31 84 -6 23 -15 42
-19 42 -5 0 -11 12 -14 26 -7 27 -24 65 -82 191 -19 39 -34 76 -34 82 0 6 -4
11 -8 11 -9 0 -46 79 -43 93 0 4 -3 7 -8 7 -5 0 -15 16 -22 35 -7 19 -16 35
-20 35 -4 0 -14 17 -23 38 -9 20 -30 57 -46 82 -16 25 -38 61 -49 80 -10 19
-28 44 -38 55 -10 12 -19 26 -20 32 -4 17 -65 107 -100 147 -7 8 -9 16 -6 20
4 3 -1 6 -10 6 -9 0 -16 3 -15 8 4 14 -23 53 -33 47 -5 -4 -9 -3 -8 2 3 18 -2
29 -25 55 -12 15 -27 24 -31 20 -5 -4 -5 -2 -2 4 3 6 -9 27 -27 47 -19 21 -31
37 -28 37 3 0 -5 8 -16 19 -12 10 -22 23 -22 30 0 6 -4 11 -8 11 -5 0 -32 28
-60 63 -70 86 -103 118 -115 110 -5 -3 -7 -1 -4 4 9 14 -142 175 -156 166 -5
-3 -7 -1 -3 5 3 6 -16 30 -45 54 -28 24 -72 63 -97 87 -58 54 -271 227 -320
260 -19 13 -45 32 -56 42 -11 11 -23 19 -27 19 -4 0 -14 6 -21 13 -12 11 -41
31 -188 126 -30 20 -61 42 -68 49 -7 6 -19 12 -26 12 -8 0 -19 7 -26 15 -7 8
-16 12 -21 9 -5 -3 -9 -1 -9 4 0 5 -18 17 -40 27 -22 10 -40 21 -40 25 0 11
-82 40 -93 33 -6 -3 -7 -1 -3 5 7 12 -47 45 -58 35 -3 -4 -6 -1 -6 5 0 7 -7
12 -15 12 -8 0 -15 5 -15 11 0 5 -4 7 -10 4 -5 -3 -10 -1 -10 4 0 6 -4 11 -9
11 -5 0 -31 10 -58 22 -26 12 -51 21 -55 20 -5 -1 -8 2 -8 6 0 5 -18 14 -40
21 -22 6 -40 15 -40 20 0 4 -19 14 -42 20 -24 7 -65 24 -93 36 -27 13 -62 27
-77 30 -16 4 -28 12 -28 17 0 6 -7 8 -15 5 -8 -4 -17 -2 -20 2 -4 8 -93 34
-118 36 -4 0 -12 7 -17 15 -5 8 -12 11 -16 7 -4 -4 -12 -3 -18 2 -17 12 -106
32 -117 26 -5 -4 -9 1 -9 9 0 9 -9 17 -22 18 -36 2 -42 3 -53 9 -5 4 -28 10
-50 14 -22 4 -43 11 -46 17 -3 5 -29 10 -56 11 -28 1 -49 5 -47 9 2 3 -21 10
-51 13 -30 4 -55 12 -55 17 0 5 -5 6 -11 2 -6 -3 -21 -2 -32 4 -21 10 -107 25
-212 37 -27 4 -59 10 -70 15 -21 9 -170 24 -400 41 -123 8 -540 10 -680 1z
m-951 -218 c3 -8 2 -12 -4 -9 -6 3 -10 10 -10 16 0 14 7 11 14 -7z m2006 12
c0 -2 -7 -7 -16 -10 -8 -3 -12 -2 -9 4 6 10 25 14 25 6z m-370 -162 c0 -8 -19
-13 -24 -6 -3 5 1 9 9 9 8 0 15 -2 15 -3z m-1313 -29 c0 -8 -4 -12 -9 -9 -5 3
-6 10 -3 15 9 13 12 11 12 -6z m2644 -132 c13 -16 12 -17 -3 -4 -10 7 -18 15
-18 17 0 8 8 3 21 -13z m-1651 1 c0 -8 -19 -13 -24 -6 -3 5 1 9 9 9 8 0 15 -2
15 -3z m1967 -9 c0 -8 -4 -12 -9 -9 -4 3 -8 9 -8 15 0 5 4 9 8 9 5 0 9 -7 9
-15z m-3122 -94 c3 -5 2 -12 -3 -15 -5 -3 -9 1 -9 9 0 17 3 19 12 6z m3362
-86 c0 -8 -4 -12 -9 -9 -5 3 -6 10 -3 15 9 13 12 11 12 -6z m-3281 -141 c1 -9
0 -13 -4 -10 -3 4 -7 14 -8 22 -1 9 0 13 4 10 3 -4 7 -14 8 -22z m-716 -68 c0
-2 -7 -7 -16 -10 -8 -3 -12 -2 -9 4 6 10 25 14 25 6z m713 -81 c-3 -9 -8 -14
-10 -11 -3 3 -2 9 2 15 9 16 15 13 8 -4z m-78 -64 c3 -5 2 -12 -3 -15 -5 -3
-9 1 -9 9 0 17 3 19 12 6z m-181 -259 c3 -5 -1 -9 -9 -9 -8 0 -12 4 -9 9 3 4
7 8 9 8 2 0 6 -4 9 -8z m2566 2 c0 -8 -19 -13 -24 -6 -3 5 1 9 9 9 8 0 15 -2
15 -3z m1280 0 c0 -8 -19 -13 -24 -6 -3 5 1 9 9 9 8 0 15 -2 15 -3z m-2545
-92 c-3 -3 -11 0 -18 7 -9 10 -8 11 6 5 10 -3 15 -9 12 -12z m865 -68 c0 -8
-19 -13 -24 -6 -3 5 1 9 9 9 8 0 15 -2 15 -3z m1280 0 c0 -8 -19 -13 -24 -6
-3 5 1 9 9 9 8 0 15 -2 15 -3z m-3980 -84 c0 -5 -2 -10 -4 -10 -3 0 -8 5 -11
10 -3 6 -1 10 4 10 6 0 11 -4 11 -10z m-1843 -105 c0 -8 -4 -12 -9 -9 -5 3 -6
10 -3 15 9 13 12 11 12 -6z m168 -375 c-3 -5 -12 -10 -18 -10 -7 0 -6 4 3 10
19 12 23 12 15 0z m7116 -397 c13 -16 12 -17 -3 -4 -10 7 -18 15 -18 17 0 8 8
3 21 -13z m-1201 -87 c-7 -7 -13 -7 -20 0 -6 6 -3 10 10 10 13 0 16 -4 10 -10z
m-4616 -74 c3 -5 -1 -9 -9 -9 -8 0 -12 4 -9 9 3 4 7 8 9 8 2 0 6 -4 9 -8z
m6611 -170 c-3 -3 -11 0 -18 7 -9 10 -8 11 6 5 10 -3 15 -9 12 -12z m-1351
-70 c2 -4 -4 -8 -14 -8 -10 0 -16 4 -14 8 3 4 9 8 14 8 5 0 11 -4 14 -8z
m-3931 -237 c-3 -9 -8 -14 -10 -11 -3 3 -2 9 2 15 9 16 15 13 8 -4z m3928 -82
c13 -16 12 -17 -3 -4 -10 7 -18 15 -18 17 0 8 8 3 21 -13z m-7681 -317 c0 -3
-4 -8 -10 -11 -5 -3 -10 -1 -10 4 0 6 5 11 10 11 6 0 10 -2 10 -4z m1356 -86
c0 -12 -4 -16 -9 -11 -5 5 -6 14 -3 20 10 15 12 14 12 -9z m2959 -19 c3 -5 2
-12 -3 -15 -5 -3 -9 1 -9 9 0 17 3 19 12 6z m162 -86 c0 -8 -4 -12 -9 -9 -5 3
-6 10 -3 15 9 13 12 11 12 -6z m-3117 -39 c0 -2 -8 -10 -17 -17 -16 -13 -17
-12 -4 4 13 16 21 21 21 13z m-482 -181 c-3 -3 -9 2 -12 12 -6 14 -5 15 5 6 7
-7 10 -15 7 -18z m7946 7 c3 -5 -1 -9 -9 -9 -8 0 -12 4 -9 9 3 4 7 8 9 8 2 0
6 -4 9 -8z m-7549 -21 c3 -5 2 -12 -3 -15 -5 -3 -9 1 -9 9 0 17 3 19 12 6z
m7766 -138 c13 -16 12 -17 -3 -4 -10 7 -18 15 -18 17 0 8 8 3 21 -13z m-8411
1 c0 -8 -19 -13 -24 -6 -3 5 1 9 9 9 8 0 15 -2 15 -3z m7687 -139 c0 -8 -4
-12 -9 -9 -5 3 -6 10 -3 15 9 13 12 11 12 -6z m-3327 -21 c0 -8 -19 -13 -24
-6 -3 5 1 9 9 9 8 0 15 -2 15 -3z m-3873 -29 c0 -8 -4 -12 -9 -9 -5 3 -6 10
-3 15 9 13 12 11 12 -6z m1207 -53 c3 -5 -1 -9 -9 -9 -8 0 -12 4 -9 9 3 4 7 8
9 8 2 0 6 -4 9 -8z m5831 -10 c-3 -3 -11 0 -18 7 -9 10 -8 11 6 5 10 -3 15 -9
12 -12z m-8315 -152 c0 -5 -2 -10 -4 -10 -3 0 -8 5 -11 10 -3 6 -1 10 4 10 6
0 11 -4 11 -10z m3814 -78 c3 -5 -1 -9 -9 -9 -8 0 -12 4 -9 9 3 4 7 8 9 8 2 0
6 -4 9 -8z m3141 -82 c3 -5 1 -10 -4 -10 -6 0 -11 5 -11 10 0 6 2 10 4 10 3 0
8 -4 11 -10z m2640 0 c3 -5 1 -10 -4 -10 -6 0 -11 5 -11 10 0 6 2 10 4 10 3 0
8 -4 11 -10z m-8478 -25 c0 -8 -4 -12 -9 -9 -5 3 -6 10 -3 15 9 13 12 11 12
-6z m-76 -52 c13 -16 12 -17 -3 -4 -17 13 -22 21 -14 21 2 0 10 -8 17 -17z
m3199 13 c0 -2 -8 -10 -17 -17 -16 -13 -17 -12 -4 4 13 16 21 21 21 13z m4706
-18 c3 -4 -1 -5 -10 -4 -8 1 -18 5 -22 8 -3 4 1 5 10 4 8 -1 18 -5 22 -8z
m649 -86 c-3 -3 -11 0 -18 7 -9 10 -8 11 6 5 10 -3 15 -9 12 -12z m-5725 -68
c0 -8 -19 -13 -24 -6 -3 5 1 9 9 9 8 0 15 -2 15 -3z m2824 -2 c3 -5 -1 -9 -9
-9 -8 0 -12 4 -9 9 3 4 7 8 9 8 2 0 6 -4 9 -8z m2581 -21 c3 -5 2 -12 -3 -15
-5 -3 -9 1 -9 9 0 17 3 19 12 6z m-7351 -59 c2 -4 -4 -8 -14 -8 -10 0 -16 4
-14 8 3 4 9 8 14 8 5 0 11 -4 14 -8z m4557 -79 c13 -16 12 -17 -3 -4 -10 7
-18 15 -18 17 0 8 8 3 21 -13z m2392 2 c-3 -9 -8 -14 -10 -11 -3 3 -2 9 2 15
9 16 15 13 8 -4z m-6893 -1 c0 -8 -19 -13 -24 -6 -3 5 1 9 9 9 8 0 15 -2 15
-3z m1371 -11 c13 -16 12 -17 -3 -4 -17 13 -22 21 -14 21 2 0 10 -8 17 -17z
m1045 -153 c0 -12 -4 -16 -9 -11 -5 5 -6 14 -3 20 10 15 12 14 12 -9z m-1031
0 c3 -6 -1 -7 -9 -4 -18 7 -21 14 -7 14 6 0 13 -4 16 -10z m4345 4 c0 -8 -19
-13 -24 -6 -3 5 1 9 9 9 8 0 15 -2 15 -3z m-6270 -82 c0 -5 -7 -9 -15 -9 -8 0
-12 4 -9 9 3 4 9 8 15 8 5 0 9 -4 9 -8z m-640 -76 c0 -2 -7 -7 -16 -10 -8 -3
-12 -2 -9 4 6 10 25 14 25 6z m715 -5 c3 -5 2 -12 -3 -15 -5 -3 -9 1 -9 9 0
17 3 19 12 6z m2305 3 c0 -8 -19 -13 -24 -6 -3 5 1 9 9 9 8 0 15 -2 15 -3z
m270 2 c0 -2 -8 -10 -17 -17 -16 -13 -17 -12 -4 4 13 16 21 21 21 13z m4545
-185 c3 -5 2 -12 -3 -15 -5 -3 -9 1 -9 9 0 17 3 19 12 6z m-1444 -68 c13 -16
12 -17 -3 -4 -10 7 -18 15 -18 17 0 8 8 3 21 -13z m-6154 -68 c0 -8 -4 -15 -9
-15 -10 0 -11 14 -1 23 9 10 10 9 10 -8z m7196 0 c-3 -9 -8 -14 -10 -11 -3 3
-2 9 2 15 9 16 15 13 8 -4z m-1353 1 c0 -2 -7 -7 -16 -10 -8 -3 -12 -2 -9 4 6
10 25 14 25 6z m-6563 -141 c0 -8 -4 -12 -9 -9 -5 3 -6 10 -3 15 9 13 12 11
12 -6z m3843 -21 c0 -8 -19 -13 -24 -6 -3 5 1 9 9 9 8 0 15 -2 15 -3z m2235
-92 c-3 -3 -11 0 -18 7 -9 10 -8 11 6 5 10 -3 15 -9 12 -12z m-2661 -70 c3 -5
-1 -9 -9 -9 -8 0 -12 4 -9 9 3 4 7 8 9 8 2 0 6 -4 9 -8z m-2609 -241 c-9 -8
-36 -10 -30 -2 2 4 11 8 20 8 8 0 13 -3 10 -6z m6395 -65 c0 -2 -8 -10 -17
-17 -16 -13 -17 -12 -4 4 13 16 21 21 21 13z m-6563 -151 c0 -8 -4 -12 -9 -9
-5 3 -6 10 -3 15 9 13 12 11 12 -6z m7678 -44 c3 -5 2 -12 -3 -15 -5 -3 -9 1
-9 9 0 17 3 19 12 6z m-1910 -61 c-3 -5 -12 -10 -18 -10 -7 0 -6 4 3 10 19 12
23 12 15 0z m155 -4 c-7 -7 -13 -7 -20 0 -6 6 -3 10 10 10 13 0 16 -4 10 -10z
m960 6 c0 -5 -7 -9 -15 -9 -8 0 -12 4 -9 9 3 4 9 8 15 8 5 0 9 -4 9 -8z
m-6295 -81 c-9 -8 -36 -10 -30 -2 2 4 11 8 20 8 8 0 13 -3 10 -6z m5719 1 c3
-5 -1 -9 -9 -9 -8 0 -12 4 -9 9 3 4 7 8 9 8 2 0 6 -4 9 -8z m651 -1 c3 -5 2
-12 -3 -15 -5 -3 -9 1 -9 9 0 17 3 19 12 6z m-1510 -81 c3 -6 -1 -7 -9 -4 -18
7 -21 14 -7 14 6 0 13 -4 16 -10z m-3050 -49 c3 -5 2 -12 -3 -15 -5 -3 -9 1
-9 9 0 17 3 19 12 6z m3360 0 c3 -5 2 -12 -3 -15 -5 -3 -9 1 -9 9 0 17 3 19
12 6z m939 -29 c3 -5 -1 -9 -9 -9 -8 0 -12 4 -9 9 3 4 7 8 9 8 2 0 6 -4 9 -8z
m1063 -157 c0 -8 -4 -15 -9 -15 -10 0 -11 14 -1 23 9 10 10 9 10 -8z m-7922
-184 c3 -5 2 -12 -3 -15 -5 -3 -9 1 -9 9 0 17 3 19 12 6z m2989 -139 c3 -5 -1
-9 -9 -9 -8 0 -12 4 -9 9 3 4 7 8 9 8 2 0 6 -4 9 -8z m3606 -158 c0 -8 -19
-13 -24 -6 -3 5 1 9 9 9 8 0 15 -2 15 -3z m-2589 -161 c13 -16 12 -17 -3 -4
-17 13 -22 21 -14 21 2 0 10 -8 17 -17z m2799 -2 c0 -6 -4 -12 -8 -15 -5 -3
-9 1 -9 9 0 8 4 15 9 15 4 0 8 -4 8 -9z m-6319 -78 c13 -16 12 -17 -3 -4 -10
7 -18 15 -18 17 0 8 8 3 21 -13z m2876 -108 c0 -8 -4 -12 -9 -9 -5 3 -6 10 -3
15 9 13 12 11 12 -6z m398 -124 c3 -5 2 -12 -3 -15 -5 -3 -9 1 -9 9 0 17 3 19
12 6z m859 -9 c3 -5 -1 -9 -9 -9 -8 0 -12 4 -9 9 3 4 7 8 9 8 2 0 6 -4 9 -8z
m1701 -1 c3 -5 2 -12 -3 -15 -5 -3 -9 1 -9 9 0 17 3 19 12 6z m755 3 c0 -8
-19 -13 -24 -6 -3 5 1 9 9 9 8 0 15 -2 15 -3z m-5315 -133 c3 -5 2 -12 -3 -15
-5 -3 -9 1 -9 9 0 17 3 19 12 6z m5122 -6 c0 -8 -4 -12 -9 -9 -5 3 -6 10 -3
15 9 13 12 11 12 -6z m-2317 -169 c0 -2 -8 -10 -17 -17 -16 -13 -17 -12 -4 4
13 16 21 21 21 13z m-3529 -23 c13 -16 12 -17 -3 -4 -10 7 -18 15 -18 17 0 8
8 3 21 -13z m1854 -73 c3 -6 -1 -7 -9 -4 -18 7 -21 14 -7 14 6 0 13 -4 16 -10z
m1139 -78 c3 -5 -1 -9 -9 -9 -8 0 -12 4 -9 9 3 4 7 8 9 8 2 0 6 -4 9 -8z
m-2587 -27 c0 -8 -4 -12 -9 -9 -5 3 -6 10 -3 15 9 13 12 11 12 -6z m3518 6 c3
-5 2 -12 -3 -15 -5 -3 -9 1 -9 9 0 17 3 19 12 6z m1120 -270 c3 -5 2 -12 -3
-15 -5 -3 -9 1 -9 9 0 17 3 19 12 6z m-2735 -27 c0 -8 -19 -13 -24 -6 -3 5 1
9 9 9 8 0 15 -2 15 -3z m1457 -99 c0 -8 -4 -12 -9 -9 -5 3 -6 10 -3 15 9 13
12 11 12 -6z m403 -49 c0 -2 -8 -10 -17 -17 -16 -13 -17 -12 -4 4 13 16 21 21
21 13z m-2456 -174 c3 -5 -1 -9 -9 -9 -8 0 -12 4 -9 9 3 4 7 8 9 8 2 0 6 -4 9
-8z m1970 -172 c-6 -6 -10 -3 -10 10 0 13 4 16 10 10 7 -7 7 -13 0 -20z"/>
</g>
</svg>
